{"title":"Mladost.5.Episode.01.WEB.Rip.MP4.MC.FREEPLAY.mp4","uid":8235150,"size":897464570,"categoryP":"video","categoryS":"hd___tv_shows","magnet":"?xt=urn:btih:89137c9e6e41e0269563ec88ba095b34d2b7bb89&amp;dn=Mladost.5.Episode.01.WEB.Rip.MP4.MC.FREEPLAY.mp4&amp;tr=udp%3A%2F%2Ftracker.openbittorrent.com%3A80&amp;tr=udp%3A%2F%2Fopen.demonii.com%3A1337&amp;tr=udp%3A%2F%2Ftracker.coppersurfer.tk%3A6969&amp;tr=udp%3A%2F%2Fexodus.desync.com%3A6969","seeders":1,"leechers":0,"uploader":"freeplay666","files":1,"time":1362823962,"description":"   Mladost.5.Episode.01.WEB.Rip.MP4.MC.FREEPLAY.mp4\n   \nGeneral\n      Complete name : D:My videosMoviesMladost.5.Episode.01.WEB.Rip.MP4.MC.FREEPLAY.mp4\n      Format : MPEG-4\n      Format profile : Base Media / Version 2\n      Codec ID : mp42\n      File size : 856 MiB\n      Duration : 45mn 30s\n      Overall bit rate : 2 629 Kbps\n      Encoded date : UTC 2013-03-09 07:59:32\n      Tagged date : UTC 2013-03-09 07:59:32\n   Video #1\n      ID : 1\n      Format : MPEG-4 Visual\n      Format profile : AdvancedSimple@L5\n      Format settings, BVOP : No\n      Format settings, QPel : No\n      Format settings, GMC : No warppoints\n      Format settings, Matrix : Default (H.263)\n      Codec ID : 20\n      Duration : 45mn 30s\n      Bit rate mode : Variable\n      Bit rate : 2 500 Kbps\n      Maximum bit rate : 26.0 Mbps\n      Width : 1 280 pixels\n      Height : 720 pixels\n      Display aspect ratio : 16:9\n      Frame rate mode : Constant\n      Frame rate : 30.000 fps\n      Resolution : 24 bits\n      Colorimetry : 4:2:0\n      Scan type : Progressive\n      Bits/(Pixel*Frame) : 0.090\n      Stream size : 814 MiB (95%)\n      Language : English\n      Encoded date : UTC 2013-03-09 07:59:32\n      Tagged date : UTC 2013-03-09 07:59:32\n   Audio #2\n      ID : 2\n      Format : AAC\n      Format/Info : Advanced Audio Codec\n      Format version : Version 4\n      Format profile : LC\n      Format settings, SBR : No\n      Codec ID : 40\n      Duration : 45mn 30s\n      Bit rate mode : Variable\n      Bit rate : 126 Kbps\n      Maximum bit rate : 413 Kbps\n      Channel(s) : 2 channels\n      Channel positions : L R\n      Sampling rate : 44.1 KHz\n      Resolution : 16 bits\n      Stream size : 40.9 MiB (5%)\n      Language : English\n      Encoded date : UTC 2013-03-09 07:59:32\n      Tagged date : UTC 2013-03-09 07:59:32","torrent":{"xt":"urn:btih:89137c9e6e41e0269563ec88ba095b34d2b7bb89","amp;dn":"Mladost.5.Episode.01.WEB.Rip.MP4.MC.FREEPLAY.mp4","amp;tr":["udp%3A%2F%2Ftracker.openbittorrent.com%3A80","udp%3A%2F%2Fopen.demonii.com%3A1337","udp%3A%2F%2Ftracker.coppersurfer.tk%3A6969","udp%3A%2F%2Fexodus.desync.com%3A6969"],"infoHash":"89137c9e6e41e0269563ec88ba095b34d2b7bb89","infoHashBuffer":{"type":"Buffer","data":[137,19,124,158,110,65,224,38,149,99,236,136,186,9,91,52,210,183,187,137]},"announce":[],"urlList":[]}}